<?xml version="1.0" encoding="utf-8"?>
<!-- Generator: Adobe Illustrator 16.0.0, SVG Export Plug-In . SVG Version: 6.00 Build 0)  -->
<!DOCTYPE svg PUBLIC "-//W3C//DTD SVG 1.1//EN" "http://www.w3.org/Graphics/SVG/1.1/DTD/svg11.dtd">
<svg version="1.1" id="Layer_1" xmlns="http://www.w3.org/2000/svg" xmlns:xlink="http://www.w3.org/1999/xlink" x="0px" y="0px"
	 width="512px" height="512px" viewBox="0 0 512 512" enable-background="new 0 0 512 512" xml:space="preserve">
<path fill='#E1E5E7' d="M385.645,182.32L493.162,70.38c6.375-6.647,9.754-15.621,9.335-24.827c-0.401-9.207-4.587-17.842-11.54-23.886
	c-6.951-6.043-16.094-8.973-25.27-8.104c-9.174,0.877-17.576,5.473-23.273,12.724L324.281,176.783
	c-22.023-1.289-45.271-2.009-69.393-2.009c-135.539,0-245.42,21.825-245.42,48.761c9.146,100.371,57.641,185.704,125.773,232.578
	c-4.653,4.495-7.57,10.771-7.57,17.752c0,13.657,11.072,24.722,24.723,24.722h204.989c13.647,0,24.722-11.065,24.722-24.722
	c0-6.985-2.924-13.263-7.579-17.759c68.128-46.875,116.62-132.206,125.766-232.571C500.292,206.163,454.451,190.958,385.645,182.32z
	 M432.274,223.534c-23.549,5.266-56.829,10.243-98.852,13.157l23.443-24.409C387.945,215.23,413.295,219.287,432.274,223.534z
	 M254.889,207.736c15.664,0,30.307,0.359,44.4,0.88l-23.914,30.466c-6.738,0.112-13.433,0.241-20.486,0.241
	c-80.589,0-140.689-7.58-177.403-15.789C114.199,215.318,174.3,207.736,254.889,207.736z"/>
</svg>
